<svg xmlns="http://www.w3.org/2000/svg" xmlns:xlink="http://www.w3.org/1999/xlink" version="1.1" x="0px" y="0px" width="340px" height="700px" viewBox="0 0 340 700" xml:space="preserve" class="style0"><style>.style0{enable-background:	new 0 0 340 700;}.style1{display:	none;}.style2{fill:	#00B1EF;}</style><g class="style1"></g><g><g><path d="M149.453 252.181l-6.634 8.062c0 0-10.325 4.482-14.829 7.344c-4.321 3-8.821 2.917-10.273 7.4 c-1.451 4.433-8.147 5.143-11 8.846c-3.01 3.624-3.76 10.288-3.72 14.708c-0.117 4.44-2.313 30.199-3.814 36.1 c-1.472 5.815-9.678 43.341-9.649 46.384c-0.039 2.963-2.386 64.785-2.386 64.785l4.409 3.718l-5.966 16.9 c0 0-0.715 3.718-0.755 5.917c0.08 2.2 3.7 4.4 3.7 4.438l8.14 0.782l6.598 2.102l3.722 0.045l6.665-4.341l1.461 3.7 c0 0-21.364 84.295-19.145 100.318c2.189 16.152-0.723 20.396-0.723 20.396l-1.024 6.964l0.75 8.058l0.438 10.428l-1.217 10 l-1.295 4.76c0 0-4.403 18.162-4.403 21.881c0.033 3.7 17.3 3.4 17.3 3.449l2.134-0.446l1.008 5.1 c0 0 13.3 3.5 17.6 1.956c4.144-1.529 29.588-1.63 31.912-5.803c2.167-4.211-5.083-2.869-9.327-5.688 c-4.31-3.069-15.516-6.944-15.516-6.944l-0.914-5.078c0 0-1.896-43.135-1.085-46.292c0.995-3.251 3.448-14.132 3.448-14.132 l-3.703-4.547l11.405-23.032c0 0 2.842-33.461 3.713-36.662c0.904-3.193 3.565-22.127 5.212-25.355 c1.554-3.313 11.347-8.195 11.347-8.195l3.626 2.929l10.313 19.232l10.971 22.851c0 0 13.9 44.2 13.9 47.9 c0.032 3.7 12.5 22.9 12.5 22.869l5.866 25.037l9.513 16.24l-0.054 8.132l0.764 9.52l36.785 4.522l19.921 0 c0 0 20.602-7.347 23.601-8.766c2.937-1.52 2.237-6.696 2.237-6.696s-8.09 0.72-11.759 0 c-3.703-0.774-18.458-2.974-18.458-2.974l-10.339-7.386l-16.047-43.526l-1.454-6.538l-4.363 1.449l-7.309-41.329l-12.462-41.253 c0 0-8.791-33.161-10.998-36.926c-2.142-3.613-2.065-19.86-2.065-19.86l-1.59-8.13l-1.46-3.669l-7.882-89.179 c0 0-0.224 49.052-0.185 53.735c0.164 4.743-5.374 9.836-5.316 13.159c0.09 3.3 1.2 16.1 1.2 16.14l2.728 6.8 l6.609-0.167l1.1 5.284l6.14 6.712l7.828 11.722c0 0 15.7 9.1 18.4 9.352c2.699 0.3 5.866-3.063 5.866-3.063l-6.135-10.14 l1.856-4.294l-3.805-5.555l-7.242-12.025l-2.002-5.427l-0.924-6.293l-2.701-14.48l-0.878-7.863l2.269-3.602l-4.998-10.817l2.506-8 l3.787-7.014l-2.137-3.022c0 0-6.925-46.844-9.081-55.637c-2.189-8.92-16.842-38.351-16.842-38.351l-10.264-13.3l-3.7-8.083" class="style2"/><g><g><path d="M239.064 222.697c0 0-9.669-8.98-25.19-16.992c-15.492-7.979-11.041-10.034-12.787-14.568 c-1.684-4.498 6.278-9.284 15.606-11.305c9.318-2.098 19.386-32.799 19.386-32.799s0.066-6.937 0.071-9.713 c-0.024-2.762-0.024-3.12-1.728-2.096c-1.695 1.038-6.296 18.007-6.296 18.007s0.017 5.539-11.132 15.5 c-11.052 10.026-2.016-6.887-0.275-10.378c1.74-3.397 10.074-15.431 7.334-20.311c-2.774-4.88-2.794 3.392-2.794 3.4 c-10.747 23.802-13.83 22.819-25.648 30.384c-11.789 7.614-9.329 1.401-9.329 1.401s-1.74-3.833 11.438-15.615 c13.12-11.689 10.104-26.496 10.081-28.948c0.016-2.391-0.031-7.619-0.67-9.66c-0.64-2.091-2.451 0.33-2.451 0.3 s-0.725 16.239-0.71 17.911c0.044 1.8-8.3 16.257-10.03 17.295c-1.729 1.056-5.506 1.741-4.172-1.436 c1.433-3.086 1.817-26.58-2.054-33.172c-3.719-6.467-4.073-0.647-4.073-0.647s2.718 16.3 1.7 22.5 c-1.092 6.11-3.513 2.25-4.518 0.972c-1.101-1.388-6.521-14.576-6.879-16.265c-0.292-1.75 10.481-68.749 10.841-70.428 c0.418-1.725 0.368-4.113-2.079-3.502c-2.447 0.672-12.159 54.178-12.901 58.047c-0.712 3.807-1.722 12.46-4.194 13.8 c-2.439 1.403-22.761-1.726-25.871-2.491c-3.078-0.72-8.247-13.489-8.907-14.476c-0.752-1.065-1.1-1.434-2.146-0.71 c-1.05 0.7 0 5.5 2.1 7.241c2.064 1.7 2.1 8 0 11.777c-2.171 3.789-12.565 4.097-12.565 4.1 s-12.375-17.254-13.413-18.705c-1.066-1.356-4.799-9.718-5.127-11.358c-0.322-1.781 0.064-42.562 0.054-43.958 c-0.044-1.411 0.368-14.82 1.11-18.598c0.681-3.763 1.688-5.88 1.363-7.615c-0.358-1.75-0.368-2.804-2.771-0.721 c-2.37 2.069-5.997 38.019-5.926 39.045c0.01 1.036-2.492 16.56-1.799 25.242c0.694 8.638-5.488 7.868-5.488 7.9 c-13.477-0.999-17.959-20.772-18.599-22.786c-0.762-2.135-1.777-7.975-1.717-12.087c0.024-4.19 0.302-8.01-1.428-10.708 c-1.638-2.811-3.129 0.305-3.055 2.089c-0.044 1.7 1 21 0.7 25.488c-0.395 4.518-3.549 5.88-4.508 6.3 c-1.082 0.291-9.088 0.283-10.423 0.324c-1.333 0.012-9.342-0.087-11.796-0.718c-2.336-0.757-3.72-3.102-4.446-4.23 c-0.66-0.97-2.373-5.177-3.752 0.08c-1.386 5.1 7.5 11.4 11 12.052c3.415 0.7 23.1 5.6 27 6.3 c3.759 0.7 18.3 8 21.1 8.737c2.739 0.6 7.9 4.2 7.9 4.154s24.792 31.8 32 40.1 c7.207 8.3 36.9 21.9 36.9 21.88s6.284 1.4 10.1 6.274c3.768 4.792-2.503 4.753-3.837 4.7 c-1.459 0.013-5.885-2.306-7.262-3.414c-1.405-1.072-5.112-3.105-9.015-5.227c-3.737-2.079-4.735 1.422-4.735 1.4 c-1.5 20 12 22.4 13.4 23.204c1.34 0.6 1 4.771-1.434 6.498c-2.374 1.713-10.459 28.579-10.459 28.6 l-10.794 29.046c0 0 13.4 8.3 26.7 15.283c3.552 1.9 21.8 9.8 24.5 9.332c9.297-1.37 17.909-6.566 15.553-20.633 c-2.389-14.207 15.943-22.077 15.943-22.077C259.738 248.7 239.1 222.7 239.1 222.697z M177.042 163.5 c-6.975 15.126-37.35-9.356-40.47-11.581c-3.153-2.067-11.681-15.521-12.444-17.625c-0.606-1.982 4.897-0.991 6.26-1.002 c1.397-0.012 5.485-0.993 5.485-0.993s16.58 0.6 20.5 0.736c3.755-0.001 11.2 1.7 11 2.8 c0.008 0.9 7.6 11.6 9.7 12.747C179.003 149.6 184 148.3 177 163.513z" class="style2"/></g></g></g></g></svg>