<svg xmlns="http://www.w3.org/2000/svg" viewBox="0 0 100 100"><g id="Layer_2"><rect style="fill:#FFFFFF;" width="100" height="100"/></g><g id="Layer_1"><g><path style="fill:#00B8F1;" d="M98.767 15.55h-4.728L87.146 3.343l-3.466 4.146v8.062h-5.236V0.932H57.118 c-0.006 0.383-0.009 0.775-0.009 1.205c0 5.2 0.3 6.4 1.3 7.574c0.751 0.9 1.9 1.4 3.4 1.4 c2.637 0 3.993-1.661 4.521-3.808h5.31c-0.94 5.616-4.895 8.476-9.865 8.476c-2.939 0-5.35-1.053-7.235-2.937 c-2.711-2.714-2.636-6.065-2.636-10.7c0-0.411 0-0.812 0.002-1.205h-6.819v5.425c0 5.691-4.369 9.417-9.869 9.4 c-5.499 0-9.867-3.727-9.867-9.417V0.932h-6.546c-0.84 0-1.668 0.063-2.477 0.18c-0.365 0.302-0.728 0.536-1.058 0.7 c1.618 0.8 3.7 2.4 3.7 6.028c0 5.007-3.428 7.72-8.211 7.72H1.234c-0.195 1.047-0.3 2.124-0.3 3.224v62.449 c0 0.1 0 0.2 0 0.281h9.326c5.237 0 8.3 2.9 8.3 7.534c0 2.976-1.963 4.896-3.316 5.5 c1.365 0.6 3.1 2 3.5 4.495h6.537V81.504h5.232v17.438c0 0 0 0.1 0 0.126h9.295 c0.001-0.042 0.004-0.082 0.004-0.126V81.504h5.199v17.564h6.896c-0.085-1.265-0.079-2.639-0.079-4.154 c0-4.633-0.075-7.986 2.636-10.697c1.886-1.885 4.296-2.938 7.235-2.938c5.007 0 8.9 2.9 9.9 8.477h-5.31 c-0.527-2.148-1.884-3.805-4.521-3.805c-1.431 0-2.599 0.526-3.35 1.395c-1.021 1.13-1.322 2.41-1.322 7.6 c0 1.8 0 3.1 0.1 4.154h21.203V81.504h5.236v11.678l9.454-11.678h5.923c0.003-0.092 0.009-0.188 0.009-0.281V18.774 C99.066 17.7 99 16.6 98.8 15.55z"/><path style="fill:#00B8F1;" d="M35.188 11.107c2.825 0 4.67-1.849 4.67-4.935v-5.24h-9.305v5.24 C30.554 9.3 32.4 11.1 35.2 11.107z"/><path style="fill:#00B8F1;" d="M92.362 95.131c3.878-3.114 6.44-7.809 6.685-13.084L90.61 92.161L92.362 95.131z"/><path style="fill:#00B8F1;" d="M85.025 98.65c1.043-0.229 2.05-0.547 3.016-0.947l-0.895-1.583L85.025 98.65z"/><path style="fill:#00B8F1;" d="M9.853 86.175h-5.12v6.013c0.039 0.1 0.1 0.1 0.1 0.165h4.99 c2.221 0 3.465-1.244 3.465-3.087C13.318 87.4 12.1 86.2 9.9 86.175z"/><path style="fill:#00B8F1;" d="M13.694 7.562c0-1.806-1.127-3.276-3.503-3.276H8.402C7.017 5.3 5.8 6.5 4.7 7.812v3.066 h5.458C12.567 10.9 13.7 9.4 13.7 7.562z"/></g><g><path style="fill:#700e00;" d="M39.708 34.966v17.591c0 2.951-1.732 4.785-4.52 4.785c-2.766 0-4.482-1.834-4.482-4.785V34.966 H25.17v17.779c0 5.5 4.2 9.6 10 9.57c5.806 0 10.021-4.024 10.021-9.57V34.966h-0.152H39.708z"/><path style="fill:#700e00;" d="M61.781 39.713c2.866 0 4 2 4.4 3.69l0.027 0.115h5.607l-0.03-0.177 c-0.902-5.387-4.646-8.604-10.015-8.604c-2.889 0-5.36 1.005-7.342 2.986c-2.685 2.684-2.683 5.936-2.68 10.437v0.732 c-0.003 4.501-0.005 7.8 2.7 10.439c1.981 2 4.5 3 7.3 2.983c5.368 0 9.112-3.216 10.015-8.604l0.03-0.176h-5.607 l-0.027 0.115c-0.414 1.684-1.511 3.69-4.375 3.69c-1.334 0-2.483-0.479-3.236-1.344c-0.964-1.065-1.285-2.295-1.285-7.471 c0-5.212 0.305-6.384 1.284-7.471C59.298 40.2 60.4 39.7 61.8 39.713z"/><line style="fill:#700e00;" x1="99.1" y1="35" x2="99.1" y2="35.9"/><line style="fill:#700e00;" x1="99.1" y1="59.9" x2="99.1" y2="62.1"/><path style="fill:#700e00;" d="M99.066 35.875v-0.909h-5.932c-0.108 0.052-7.985 9.773-9.303 11.4c0-0.794 0-11.4 0-11.4h-5.539 v27.123h5.539c0 0 0-8.208 0-8.211c0.025 0 2.656-3.124 3.291-3.881c0.208 0.4 6.8 12 6.8 12.015l5.158 0.074v-2.234 c-1.049-1.811-7.754-13.181-8.271-14.059C90.921 45.6 98.1 37 99.1 35.875z"/><line style="fill:#700e00;" x1="0.9" y1="62.1" x2="0.9" y2="35"/><path style="fill:#700e00;" d="M19.084 54.214c0-3.654-2.139-5.315-3.563-6.034c1.573-0.854 3.187-2.863 3.187-5.53 c0-4.739-3.234-7.684-8.442-7.684H0.934l0 0v27.123h9.788C15.88 62.1 19.1 59.1 19.1 54.214z M4.885 39.9 c0.284 0 5 0 5 0c2.075 0 3.3 1.1 3.3 2.937c0 1.837-1.24 2.935-3.314 2.935c0 0-4.684 0-4.968 0 C4.885 45.5 4.9 40.2 4.9 39.941z M4.885 57.115c0-0.282 0-6.008 0-6.289c0.286 0 5.3 0 5.3 0 c2.471 0 3.4 1.6 3.4 3.124c0 1.529-0.881 3.165-3.353 3.165C10.19 57.1 5.2 57.1 4.9 57.115z"/></g></g></svg>